<svg aria-hidden="true" style="position: absolute; width: 0; height: 0; overflow: hidden;" version="1.1" xmlns="http://www.w3.org/2000/svg" xmlns:xlink="http://www.w3.org/1999/xlink">
<defs>
<!--? Logo -->
<symbol id="icon-logo" viewBox="0 0 176 32">
<path d="M6.64 17.707l-6.64-11.040h3.973l4.453 7.653h0.053l4.453-7.653h3.973l-6.64 11.040v7.627h-3.627v-7.627z"></path>
<path d="M16.894 22.267v-12.533l3.067-3.067h9.6l3.067 3.067v12.533l-3.067 3.067h-9.6l-3.067-3.067zM27.64 22.24l1.36-1.36v-9.76l-1.36-1.36h-5.76l-1.36 1.36v9.76l1.36 1.36h5.76z"></path>
<path d="M35.166 22.133v-15.467h3.627v14.213l1.36 1.36h5.227l1.36-1.36v-14.213h3.627v15.467l-3.2 3.2h-8.8l-3.2-3.2z"></path>
<path d="M67.837 19.147v6.187h-3.627v-5.36l-1.6-1.787h-5.813v7.147h-3.627v-18.667h11.707l2.853 2.88v5.653l-1.813 1.84 1.92 2.107zM56.797 15.2h6.427l0.933-0.933v-3.627l-0.933-0.933h-6.427v5.493z"></path>
<path d="M77.098 6.667h13.493v3.067h-9.867v4.72h9.093v3.013h-9.093v4.8h9.867v3.067h-13.493v-18.667z"></path>
<path d="M92.603 6.667h3.253l8.32 12.667h0.053v-12.667h3.493v18.667h-3.253l-8.32-12.64h-0.053v12.64h-3.493v-18.667z"></path>
<path d="M110.53 6.667h13.493v3.067h-9.867v4.72h9.093v3.013h-9.093v4.8h9.867v3.067h-13.493v-18.667z"></path>
<path d="M140.703 19.147v6.187h-3.627v-5.36l-1.6-1.787h-5.814v7.147h-3.627v-18.667h11.707l2.853 2.88v5.653l-1.813 1.84 1.92 2.107zM129.662 15.2h6.427l0.933-0.933v-3.627l-0.933-0.933h-6.427v5.493z"></path>
<path d="M143.097 22.267v-12.533l3.067-3.067h9.28l3.013 3.013v2.853h-3.627v-1.52l-1.253-1.253h-5.493l-1.36 1.36v9.76l1.36 1.36h5.547l1.307-1.307v-2.907h-4v-3.093h7.52v7.333l-3.067 3.067h-9.227l-3.067-3.067z"></path>
<path d="M165.104 17.707l-6.64-11.040h3.973l4.453 7.653h0.053l4.453-7.653h3.973l-6.64 11.040v7.627h-3.627v-7.627z"></path>
</symbol>
<!-- ?Facebook -->
<symbol id="icon-facebook" viewBox="0 0 32 32">
<path d="M19.52 4.64c0.24 0 0.48 0 0.96 0v3.6c-0.24 0-0.72 0-1.2 0s-0.96 0-1.2 0.24c-0.24 0.24-0.24 0.48-0.24 1.040 0 0.48 0 0.8 0 1.28h2.64v3.040h-2.64v13.2h-4.080v-13.28h-2.16v-3.040h2.16v-1.040c0-1.76 0.24-3.040 0.72-3.6 0.72-1.040 2.16-1.52 4.32-1.52 0.24 0.080 0.48 0.080 0.72 0.080z"></path>
</symbol>
<!-- ?Youtube -->
<symbol id="icon-youtube" viewBox="0 0 32 32">
<path d="M24.24 6c-1.36-0.080-4.16-0.16-8.4-0.16h-0.56c-4.080 0-6.8 0.080-8.16 0.24-1.84 0.16-3.12 0.64-3.84 1.28-0.64 0.56-1.12 1.6-1.28 2.96-0.080 0.88-0.16 2.72-0.16 5.52v0.4c0 2.64 0.080 4.48 0.24 5.36 0.24 1.28 0.64 2.24 1.44 2.8 0.8 0.64 2.16 1.040 4.080 1.2 1.36 0.080 4.16 0.16 8.4 0.16h0.56c4.080 0 6.8-0.080 8.16-0.24 1.84-0.16 3.12-0.64 3.84-1.28 0.64-0.56 1.12-1.6 1.28-2.96 0.080-0.88 0.16-2.72 0.16-5.52v-0.4c0-2.64-0.080-4.48-0.24-5.36-0.24-1.28-0.64-2.24-1.44-2.8-0.8-0.64-2.16-1.040-4.080-1.2zM21.12 15.84l-8.8 5.28v-10.56l8.8 5.28z"></path>
</symbol>
<!-- ?Instagram -->
<symbol id="icon-instagram" viewBox="0 0 32 32">
<path d="M28.717 10.756c-0.016-1.074-0.215-2.14-0.596-3.145-0.667-1.716-2.024-3.073-3.743-3.737-0.994-0.373-2.044-0.573-3.108-0.596-1.368-0.061-1.801-0.078-5.273-0.078s-3.917 0-5.274 0.078c-1.062 0.023-2.112 0.223-3.106 0.596-1.719 0.664-3.078 2.021-3.743 3.737-0.374 0.992-0.576 2.041-0.596 3.101-0.061 1.367-0.080 1.8-0.080 5.265s0 3.909 0.080 5.265c0.021 1.062 0.222 2.109 0.596 3.104 0.667 1.714 2.024 3.071 3.744 3.735 0.989 0.386 2.040 0.605 3.106 0.639 1.369 0.061 1.803 0.080 5.274 0.080s3.916 0 5.274-0.080c1.062-0.021 2.113-0.221 3.108-0.595 1.719-0.666 3.076-2.022 3.743-3.737 0.374-0.994 0.574-2.041 0.596-3.104 0.061-1.365 0.080-1.798 0.080-5.265-0.003-3.466-0.003-3.906-0.082-5.264zM15.99 22.531c-3.631 0-6.572-2.936-6.572-6.561s2.941-6.561 6.572-6.561c3.628 0 6.572 2.936 6.572 6.561s-2.944 6.561-6.572 6.561zM22.823 10.696c-0.849 0-1.532-0.684-1.532-1.53s0.684-1.53 1.532-1.53c0.846 0 1.531 0.684 1.531 1.53s-0.685 1.53-1.531 1.53z"></path>
<path d="M15.992 19.976c2.211 0 4.004-1.793 4.004-4.004s-1.793-4.004-4.004-4.004c-2.211 0-4.004 1.793-4.004 4.004s1.793 4.004 4.004 4.004z"></path>
</symbol>
<!-- ?Close-x -->
<symbol id="icon-close" viewBox="0 0 32 32">
<path stroke-linejoin="round" stroke-linecap="round" stroke-miterlimit="4" stroke-width="2" d="M24 8l-16 16"></path>
<path stroke-linejoin="round" stroke-linecap="round" stroke-miterlimit="4" stroke-width="2" d="M8 8l16 16"></path>
</symbol>
<!-- ?Sun -->
<symbol id="icon-sun" viewBox="0 0 32 32">
<path d="M16.058 2.852c-0.009 0.352-0.030 1.284-0.047 2.072-0.017 0.786-0.041 1.844-0.053 2.35-0.011 0.504-0.036 1.619-0.053 2.478-0.017 0.857-0.036 1.671-0.043 1.805-0.004 0.135-0.019 0.803-0.032 1.485s-0.028 1.282-0.036 1.335l-0.011 0.096-0.105-0.267c-0.060-0.147-0.235-0.605-0.393-1.015-0.156-0.412-0.431-1.128-0.609-1.591-0.179-0.464-0.5-1.305-0.716-1.869s-0.654-1.709-0.972-2.542c-0.32-0.835-0.617-1.613-0.662-1.73-0.064-0.173-0.681-1.769-0.859-2.228-0.026-0.062-0.047-0.109-0.051-0.105-0.009 0.009 0.197 0.622 0.889 2.664 0.237 0.699 0.553 1.636 0.705 2.083 0.15 0.446 0.453 1.339 0.673 1.987 0.22 0.645 0.528 1.555 0.684 2.019s0.425 1.26 0.598 1.769c0.171 0.508 0.31 0.936 0.305 0.948-0.011 0.032-0.006 0.038-2.401-2.728-1.16-1.339-2.414-2.786-2.783-3.213-0.372-0.429-0.799-0.923-0.953-1.1-0.726-0.846-1.803-2.079-1.837-2.106-0.053-0.043-0.103-0.105 3.96 4.977 4.163 5.21 3.621 4.527 3.608 4.539-0.011 0.011-1.252-0.675-3.766-2.083-1.604-0.897-4.672-2.606-6.056-3.375-0.523-0.291-0.763-0.417-0.737-0.391 0.021 0.024 0.974 0.607 2.531 1.555 0.429 0.261 1.342 0.818 2.029 1.239s1.688 1.032 2.222 1.356c1.512 0.921 2.999 1.829 3.264 1.993 0.237 0.147 0.305 0.201 0.226 0.179-0.024-0.006-0.088-0.017-0.147-0.026-0.115-0.015-0.34-0.051-2.2-0.352-2.681-0.436-3.625-0.587-4.817-0.78-0.688-0.111-1.485-0.239-1.773-0.286-2.023-0.331-2.931-0.474-2.952-0.468-0.013 0.004 0.13 0.038 0.316 0.077 0.878 0.182 1.403 0.288 3.010 0.613 0.953 0.192 2.375 0.481 3.162 0.641 0.788 0.16 2.046 0.414 2.798 0.566 2.66 0.536 2.542 0.511 2.516 0.534-0.024 0.019-0.122 0.041-1.705 0.34-2.034 0.387-3.127 0.596-3.482 0.664-0.175 0.034-0.474 0.092-0.662 0.126-0.188 0.036-0.696 0.132-1.132 0.216-0.434 0.083-0.987 0.19-1.228 0.235-0.707 0.135-2.104 0.399-2.702 0.515-1.13 0.218-1.188 0.239-0.265 0.105 0.323-0.047 0.647-0.096 0.724-0.107s0.523-0.079 0.993-0.15 1.527-0.231 2.35-0.355c0.822-0.122 1.649-0.246 1.837-0.276 0.188-0.028 0.891-0.135 1.559-0.235 0.671-0.1 1.337-0.201 1.485-0.224s0.594-0.090 0.993-0.15 0.859-0.128 1.021-0.152c0.16-0.023 0.303-0.041 0.316-0.036 0.026 0.009-0.852 0.538-4.531 2.73-1.102 0.656-4.65 2.777-5.426 3.243-0.461 0.278-0.607 0.372-0.449 0.293 0.12-0.060-0.004 0.006 7.338-3.995 1.363-0.743 2.668-1.455 2.901-1.581s0.427-0.224 0.434-0.218c0.011 0.011-0.156 0.222-0.91 1.147-0.254 0.312-0.731 0.897-1.060 1.303s-0.978 1.203-1.442 1.773c-1.897 2.333-2.63 3.234-3.347 4.121-0.417 0.513-0.814 1.002-0.884 1.085-0.276 0.335-0.075 0.124 0.543-0.575 0.355-0.404 0.652-0.737 0.658-0.743s0.218-0.246 0.47-0.534 0.641-0.731 0.865-0.985c0.222-0.252 0.82-0.929 1.324-1.504 0.506-0.575 1.034-1.177 1.175-1.337s0.453-0.515 0.694-0.788c0.241-0.273 0.664-0.754 0.94-1.068 0.276-0.312 0.699-0.793 0.94-1.068 0.241-0.273 0.44-0.485 0.444-0.468 0.002 0.017-0.092 0.308-0.211 0.649-0.117 0.34-0.314 0.908-0.436 1.26s-0.265 0.765-0.316 0.919c-0.053 0.152-0.286 0.825-0.517 1.495-0.231 0.669-0.726 2.102-1.1 3.183-1.087 3.147-1.429 4.142-1.423 4.148 0.006 0.009 0.466-1.162 1.829-4.661 0.421-1.081 1.049-2.692 1.395-3.578s0.771-1.978 0.944-2.425c0.173-0.446 0.323-0.82 0.331-0.829 0.021-0.023 0.038 0.652 0.064 2.431 0.011 0.775 0.026 1.679 0.032 2.008 0.017 0.959 0.030 1.782 0.043 2.595 0.006 0.417 0.015 0.993 0.021 1.282s0.021 1.177 0.034 1.976c0.013 0.799 0.030 1.596 0.041 1.773l0.015 0.32 0.004-0.374c0.002-0.205 0.009-0.47 0.013-0.587 0.006-0.117 0.036-1.344 0.064-2.724 0.030-1.38 0.068-3.102 0.085-3.824s0.047-2.044 0.064-2.937c0.019-0.893 0.041-1.7 0.049-1.794l0.015-0.171 0.179 0.47c0.098 0.258 0.312 0.816 0.474 1.239 0.16 0.423 0.468 1.226 0.681 1.784s0.551 1.442 0.752 1.965c0.199 0.523 0.414 1.085 0.476 1.25 0.064 0.165 0.237 0.615 0.384 1.004 0.15 0.387 0.352 0.916 0.451 1.175s0.327 0.859 0.511 1.335c0.184 0.476 0.372 0.97 0.421 1.096 0.047 0.126 0.090 0.226 0.094 0.222 0.009-0.009-0.423-1.299-1.049-3.144-0.711-2.093-0.778-2.292-1.122-3.311-0.186-0.553-0.421-1.245-0.519-1.538-0.1-0.295-0.38-1.122-0.624-1.837-0.244-0.718-0.485-1.429-0.536-1.581-0.051-0.154-0.094-0.282-0.094-0.286 0-0.030 0.382 0.404 1.228 1.386 0.203 0.237 0.722 0.835 2.734 3.162 1.102 1.273 1.062 1.224 1.805 2.085 0.335 0.387 0.677 0.78 0.758 0.876 0.502 0.579 1.549 1.782 1.598 1.835 0.139 0.145-0.308-0.414-3.916-4.926-2.081-2.598-3.781-4.734-3.781-4.744s0.041 0.004 0.092 0.034c0.049 0.028 0.35 0.194 0.666 0.37 0.581 0.323 1.681 0.936 3.322 1.854 0.487 0.273 1.314 0.735 1.837 1.025s1.576 0.878 2.339 1.303c0.765 0.425 1.643 0.914 1.952 1.087s0.568 0.31 0.573 0.303c0.004-0.004-0.132-0.094-0.308-0.199-0.173-0.107-0.47-0.286-0.658-0.402s-0.895-0.545-1.57-0.957c-0.675-0.41-1.66-1.013-2.19-1.335-0.528-0.323-1.111-0.679-1.292-0.79s-0.461-0.28-0.619-0.378c-0.158-0.096-0.995-0.607-1.858-1.132s-1.675-1.021-1.801-1.098c-0.132-0.081-0.218-0.143-0.199-0.147s0.254 0.028 0.521 0.070c1.162 0.188 1.436 0.231 1.98 0.32 0.318 0.051 0.735 0.12 0.929 0.15s0.613 0.098 0.929 0.15c0.318 0.051 0.731 0.12 0.919 0.15s0.519 0.083 0.737 0.12c0.218 0.034 0.568 0.092 0.78 0.126 0.526 0.083 1.374 0.22 3.044 0.491 1.41 0.229 2.132 0.342 2.16 0.34 0.083-0.004 0.023-0.017-3.174-0.662-1.162-0.233-2.427-0.487-2.809-0.566-0.382-0.077-1.664-0.335-2.852-0.575-2.865-0.577-3.029-0.611-3.063-0.63-0.041-0.021-0.019-0.028 0.393-0.105 0.188-0.036 0.545-0.103 0.79-0.15 1.203-0.231 1.961-0.376 2.36-0.451 0.241-0.045 0.995-0.19 1.677-0.32s2.066-0.395 3.076-0.587c2.672-0.511 3.629-0.694 3.653-0.705 0.053-0.024-0.517 0.053-1.559 0.214-0.423 0.064-4.832 0.731-5.17 0.78-0.070 0.011-0.451 0.068-0.844 0.128s-1 0.152-1.346 0.203c-0.346 0.053-1.015 0.154-1.485 0.224-1.32 0.201-1.591 0.239-1.63 0.231-0.030-0.006 0.876-0.558 3.125-1.897 0.628-0.374 1.944-1.16 3.332-1.991 0.718-0.429 1.899-1.136 2.628-1.572 1.207-0.72 1.609-0.97 1.292-0.799-0.53 0.286-1.196 0.649-2.905 1.581-1.087 0.594-2.35 1.282-2.809 1.532-0.457 0.25-1.668 0.91-2.692 1.468-2.309 1.26-2.275 1.241-2.275 1.22 0-0.011 0.041-0.066 0.088-0.124 0.049-0.060 0.246-0.299 0.436-0.534s0.694-0.854 1.119-1.378 0.933-1.147 1.128-1.389c0.197-0.241 0.752-0.923 1.235-1.517 2.877-3.54 3.646-4.486 3.79-4.668 0.137-0.175-0.267 0.273-1.376 1.536-0.246 0.282-0.746 0.85-1.111 1.262-0.363 0.412-1.22 1.384-1.901 2.16-2.506 2.848-2.807 3.191-3.288 3.736-0.269 0.305-0.493 0.56-0.498 0.564s-0.011 0.004-0.019-0.002c-0.013-0.013 0.053-0.207 0.671-1.993 0.224-0.647 0.504-1.459 0.624-1.805s0.338-0.976 0.485-1.399c0.145-0.423 0.406-1.173 0.577-1.666 0.169-0.493 0.35-1.017 0.402-1.164 0.276-0.793 1.177-3.414 1.196-3.482 0.032-0.111-0.011-0.026-0.096 0.192-0.049 0.124-0.31 0.786-0.577 1.474s-0.795 2.038-1.171 3.001c-0.376 0.963-0.887 2.275-1.136 2.916-0.395 1.013-0.955 2.45-1.337 3.429-0.066 0.165-0.126 0.308-0.139 0.32-0.011 0.011-0.019-0.096-0.021-0.288 0-0.171-0.004-0.367-0.009-0.438s-0.013-0.547-0.021-1.057c-0.006-0.511-0.021-1.468-0.032-2.126s-0.030-1.822-0.043-2.585c-0.011-0.765-0.026-1.577-0.032-1.805-0.004-0.229-0.021-1.128-0.034-1.997-0.028-1.893-0.045-2.23-0.068-1.303zM16.408 14.537c0.681 0.175 1.147 0.818 1.102 1.521-0.068 1.027-1.143 1.668-2.076 1.235-0.829-0.382-1.115-1.397-0.607-2.158 0.344-0.513 0.978-0.752 1.581-0.598z"></path>
<path d="M7.199 5.349c0 0.004 0.017 0.021 0.038 0.036 0.032 0.028 0.034 0.026 0.006-0.009s-0.045-0.045-0.045-0.028zM2.602 13.516c0.015 0.006 0.034 0.004 0.041-0.002 0.009-0.006-0.004-0.013-0.028-0.011-0.023 0-0.030 0.006-0.013 0.013zM29.614 13.644c0.019 0.004 0.049 0.004 0.064 0 0.013-0.006-0.002-0.011-0.038-0.011-0.034 0-0.047 0.004-0.026 0.011zM29.561 18.429c0.013 0.004 0.038 0.004 0.053 0 0.013-0.006 0.002-0.011-0.028-0.011s-0.041 0.004-0.026 0.011z"></path>
</symbol>
</defs>
</svg>
